Coordinates
version=1
nRows=12
nColumns=46
inDegrees=yes

Units are S.I. units (second, meters, Newtons, ...)
Angles are in degrees.

endheader
time	pelvis_tilt	pelvis_list	pelvis_rotation	pelvis_tx	pelvis_ty	pelvis_tz	bb_angle	bb_tx	bb_ty	bb_tz	hip_flexion_r	hip_adduction_r	hip_rotation_r	knee_angle_r	knee_angle_r_beta	ankle_angle_r	subtalar_angle_r	mtp_angle_r	crank_angle_r	hip_flexion_l	hip_adduction_l	hip_rotation_l	knee_angle_l	knee_angle_l_beta	ankle_angle_l	subtalar_angle_l	mtp_angle_l	crank_angle_l	lumbar_extension	lumbar_bending	lumbar_rotation	arm_flex_r	arm_add_r	arm_rot_r	elbow_flex_r	pro_sup_r	wrist_flex_r	wrist_dev_r	arm_flex_l	arm_add_l	arm_rot_l	elbow_flex_l	pro_sup_l	wrist_flex_l	wrist_dev_l
      2.50000000	    -29.02999630	     -2.42505536	      0.19446674	      0.28405711	      1.29396104	     -0.25032621	      0.00000000	      0.50000000	      0.00000000	      0.25000000	     61.66008997	     -0.01744797	     -2.03685896	     45.69399441	      0.79751065	      7.42699094	     -7.93176270	      0.00000000	      0.00000000	     42.38290301	     -7.99984110	     -2.78019060	     42.76460563	      0.74638317	    -16.19027498	     -2.88454889	      0.00000000	      0.00000000	    -60.43132858	     11.59430990	      9.20457182	     88.50293635	    -11.42393933	     43.88402256	     52.76824393	     43.33972413	      0.00000000	      0.00000000	     76.76779094	    -12.33280275	     23.88342652	     47.52685767	     43.54054599	      0.00000000	      0.00000000
      2.50500000	    -28.98734225	     -2.20844821	      0.33261778	      0.28564761	      1.29359021	     -0.24980360	      0.00000000	      0.50000000	      0.00000000	      0.25000000	     60.98604743	     -0.18281693	     -1.91197097	     44.66632493	      0.77957443	      7.17671365	     -7.71528864	      0.00000000	      0.00000000	     43.13644785	     -7.72005968	     -2.37926066	     44.37358174	      0.77446510	    -16.42329612	     -3.44186484	      0.00000000	      0.00000000	    -60.49267165	     11.53321292	      9.03210285	     88.36010003	    -11.49473330	     43.86318049	     53.06473020	     43.42473151	      0.00000000	      0.00000000	     76.50083273	    -12.40590838	     23.70163767	     47.77378233	     43.60202898	      0.00000000	      0.00000000
      2.51000000	    -28.97155435	     -1.99255437	      0.43731615	      0.28725448	      1.29290312	     -0.24925455	      0.00000000	      0.50000000	      0.00000000	      0.25000000	     60.34658926	     -0.29764419	     -1.75913364	     43.64757905	      0.76179396	      6.79520791	     -7.76035994	      0.00000000	      0.00000000	     43.93262494	     -7.46313542	     -1.98375696	     46.01930484	      0.80318839	    -16.54281705	     -3.83564686	      0.00000000	      0.00000000	    -60.54845295	     11.41417404	      8.81946651	     88.08983174	    -11.78944169	     43.75216922	     53.79473481	     43.71947075	      0.00000000	      0.00000000	     75.96835180	    -12.56304033	     23.04774750	     48.75266005	     43.85457165	      0.00000000	      0.00000000
      2.51500000	    -28.84608723	     -1.73973533	      0.58487196	      0.28890365	      1.29214605	     -0.24882157	      0.00000000	      0.50000000	      0.00000000	      0.25000000	     59.62613096	     -0.52135849	     -1.67777427	     42.72029394	      0.74560979	      6.57616829	     -7.59483384	      0.00000000	      0.00000000	     44.62260399	     -7.14541614	     -1.60012733	     47.69888043	      0.83250251	    -16.58593952	     -4.22966315	      0.00000000	      0.00000000	    -60.60562246	     11.29264097	      8.55810331	     87.88460335	    -11.83466532	     43.70848896	     53.89063673	     43.77068749	      0.00000000	      0.00000000	     75.78481729	    -12.58084095	     23.01510873	     48.79856904	     43.88860767	      0.00000000	      0.00000000
      2.52000000	    -28.69142268	     -1.52924636	      0.73513892	      0.29061778	      1.29114493	     -0.24842145	      0.00000000	      0.50000000	      0.00000000	      0.25000000	     58.88895966	     -0.72830279	     -1.65826054	     41.84503389	      0.73033362	      6.35670355	     -7.46035145	      0.00000000	      0.00000000	     45.30672428	     -6.87013728	     -1.23398770	     49.42056349	      0.86255155	    -16.68752362	     -4.60374803	      0.00000000	      0.00000000	    -60.65302397	     11.21203828	      8.32378185	     87.61132708	    -11.90644310	     43.62649179	     54.06780412	     43.83438547	      0.00000000	      0.00000000	     75.53520352	    -12.66371216	     22.96061255	     48.91940555	     43.93185980	      0.00000000	      0.00000000
      2.52500000	    -28.42358717	     -1.05760149	      0.87236382	      0.29254885	      1.29024730	     -0.24813557	      0.00000000	      0.50000000	      0.00000000	      0.25000000	     58.08562871	     -1.12940455	     -1.45085656	     41.08596880	      0.71708543	      6.21598518	     -7.28129089	      0.00000000	      0.00000000	     45.75701317	     -6.38580245	     -1.09697452	     50.98680048	      0.88988754	    -16.89504771	     -4.69371022	      0.00000000	      0.00000000	    -60.74623615	     10.94128422	      7.88835777	     87.43385513	    -12.01550861	     43.59055535	     54.10479621	     43.84939995	      0.00000000	      0.00000000	     75.27796117	    -12.58130902	     23.00420353	     48.93677033	     43.94889122	      0.00000000	      0.00000000
      2.53000000	    -28.13340274	     -0.70025758	      1.02308912	      0.29434435	      1.28907397	     -0.24761286	      0.00000000	      0.50000000	      0.00000000	      0.25000000	     57.27110724	     -1.44984886	     -1.32928924	     40.37326166	      0.70464635	      6.13058065	     -7.08016617	      0.00000000	      0.00000000	     46.26669628	     -6.01077850	     -0.90557297	     52.68222870	      0.91947835	    -16.97965631	     -4.91935162	      0.00000000	      0.00000000	    -60.84623802	     10.71444932	      7.51756731	     87.14202621	    -12.11619933	     43.55160549	     54.17147580	     43.87210420	      0.00000000	      0.00000000	     75.06889194	    -12.59263366	     23.01535585	     48.97922607	     43.96664671	      0.00000000	      0.00000000
      2.53500000	    -28.02435929	     -0.79435553	      1.22534549	      0.29585076	      1.28687809	     -0.24712890	      0.00000000	      0.50000000	      0.00000000	      0.25000000	     56.64733952	     -1.52782171	     -1.67299517	     39.68143131	      0.69257163	      6.20192916	     -6.78320272	      0.00000000	      0.00000000	     47.22508886	     -5.99088802	     -0.37257651	     54.76971858	      0.95591192	    -16.73325410	     -5.29597637	      0.00000000	      0.00000000	    -60.84503455	     10.87701873	      7.47020403	     86.13114634	    -12.20112445	     42.35723184	     55.61882527	     44.27846452	      0.00000000	      0.00000000	     74.25962137	    -13.22247359	     22.84970217	     50.47694843	     44.35495181	      0.00000000	      0.00000000
      2.54000000	    -27.66851044	     -0.51489409	      1.40511436	      0.29766153	      1.28522123	     -0.24672009	      0.00000000	      0.50000000	      0.00000000	      0.25000000	     55.81010038	     -1.85891098	     -1.69115275	     39.09527248	      0.68234123	      6.26159692	     -6.47336786	      0.00000000	      0.00000000	     47.71163649	     -5.66379845	     -0.16689057	     56.54389679	      0.98687717	    -16.69326483	     -5.57837563	      0.00000000	      0.00000000	    -60.92517396	     10.74842086	      7.12977580	     85.71155559	    -12.24031776	     42.24508224	     55.70409525	     44.33526993	      0.00000000	      0.00000000	     74.02188602	    -13.24624414	     22.90967045	     50.52688610	     44.39759092	      0.00000000	      0.00000000
      2.54500000	    -27.28120476	     -0.10747088	      1.57092943	      0.29945865	      1.28348353	     -0.24624597	      0.00000000	      0.50000000	      0.00000000	      0.25000000	     54.97634227	     -2.25691764	     -1.57282745	     38.56932600	      0.67316173	      6.25653833	     -6.27842891	      0.00000000	      0.00000000	     48.11968098	     -5.24504112	     -0.08346028	     58.23229526	      1.01634528	    -16.79776542	     -5.70705948	      0.00000000	      0.00000000	    -61.02946461	     10.51446778	      6.68854113	     85.39652497	    -12.32181935	     42.19546926	     55.72890790	     44.35430880	      0.00000000	      0.00000000	     73.81138951	    -13.16200609	     23.00161501	     50.57620455	     44.42640419	      0.00000000	      0.00000000
      2.55000000	    -26.85507579	     -0.00926229	      1.74822300	      0.30127353	      1.28129865	     -0.24586795	      0.00000000	      0.50000000	      0.00000000	      0.25000000	     54.10123487	     -2.48604330	     -1.81388563	     38.10693680	      0.66509152	      6.52092788	     -5.82514178	      0.00000000	      0.00000000	     48.60528475	     -5.09643804	      0.17711925	     60.13840223	      1.04961313	    -16.53574636	     -6.03024912	      0.00000000	      0.00000000	    -61.09442451	     10.50637928	      6.48140178	     84.67035804	    -12.33947231	     41.98721856	     55.93979433	     44.42092550	      0.00000000	      0.00000000	     73.53074053	    -13.30415528	     23.16170972	     50.80483302	     44.50712811	      0.00000000	      0.00000000
      2.55500000	    -26.54065312	      0.17140245	      2.01520164	      0.30296281	      1.27872079	     -0.24577176	      0.00000000	      0.50000000	      0.00000000	      0.25000000	     53.41326101	     -2.88216611	     -2.06507777	     37.78843494	      0.65953261	      6.93062265	     -5.06520573	      0.00000000	      0.00000000	     49.21178566	     -4.78810906	      0.48513363	     61.99240513	      1.08197158	    -16.35640021	     -5.88494004	      0.00000000	      0.00000000	    -61.11556260	     10.52556595	      6.22744481	     83.60884962	    -12.34192272	     40.65361176	     56.99996395	     44.66376545	      0.00000000	      0.00000000	     73.01514119	    -13.77426011	     23.76891007	     51.86043688	     44.84146211	      0.00000000	      0.00000000
